<?xml version="1.0"?>
<svg xmlns="http://www.w3.org/2000/svg" xmlns:xlink="http://www.w3.org/1999/xlink" xmlns:svgjs="http://svgjs.com/svgjs" version="1.1" width="512" height="512" x="0" y="0" viewBox="0 0 464 464" style="enable-background:new 0 0 512 512" xml:space="preserve" class=""><g><path xmlns="http://www.w3.org/2000/svg" d="m464 95v274c0 17.7-14.3 32-32 32h-400c-17.7 0-32-14.3-32-32v-274c0-17.7 14.3-32 32-32h400c17.7 0 32 14.3 32 32z" fill="#0566b5" data-original="#fe4f60" style="" class=""/><path xmlns="http://www.w3.org/2000/svg" d="m464 95v24.8c0 9.4-8 16-15.2 16-168 8.3-299.2 108.9-354.1 254.9-2.3 6.2-8.3 10.4-15 10.4h-47.7c-17.7 0-32-14.3-32-32v-274.1c0-17.7 14.3-32 32-32h400c17.7 0 32 14.3 32 32z" fill="#0566b5" data-original="#ff6d7a" style="" class=""/><path xmlns="http://www.w3.org/2000/svg" d="m0 135h464v68h-464z" fill="#ffffff" data-original="#42434d" style="" class=""/><path xmlns="http://www.w3.org/2000/svg" d="m453 135c-9.9 3.2-108.6-1.7-211.3 67.8-.4.3 10.9.2-241.7.2v-68z" fill="#ffffff" data-original="#4d4e59" style="" class=""/><g xmlns="http://www.w3.org/2000/svg" fill="#fff"><path d="m132 286h-67c-4.4 0-8-3.6-8-8s3.6-8 8-8h67c4.4 0 8 3.6 8 8s-3.6 8-8 8z" fill="#ffffff" data-original="#ffffff" style="" class=""/><path d="m132 336h-67c-4.4 0-8-3.6-8-8s3.6-8 8-8h67c4.4 0 8 3.6 8 8s-3.6 8-8 8z" fill="#ffffff" data-original="#ffffff" style="" class=""/></g></g></svg>
