<?xml version="1.0"?>
<svg xmlns="http://www.w3.org/2000/svg" xmlns:xlink="http://www.w3.org/1999/xlink" xmlns:svgjs="http://svgjs.com/svgjs" version="1.1" width="512" height="512" x="0" y="0" viewBox="0 0 128 128" style="enable-background:new 0 0 512 512" xml:space="preserve" class=""><g><g xmlns="http://www.w3.org/2000/svg"><path d="m48.258 1.747h65.242v124.5h-65.242z" fill="#0566b5" data-original="#4d5680" style="" class=""/><circle cx="80.879" cy="30.153" fill="#ffffff" r="20.406" transform="matrix(.124 -.992 .992 .124 40.963 106.685)" data-original="#f3f5f9" style="" class=""/><path d="m85.892 35.919h-10.027a8.773 8.773 0 0 0 -8.773 8.774v.5a20.4 20.4 0 0 0 27.574 0v-.5a8.774 8.774 0 0 0 -8.774-8.774z" fill="#0566b5" data-original="#ffd830" style="" class=""/><path d="m80.879 29.451a5.17 5.17 0 0 1 -5.17-5.17v-2.037a5.17 5.17 0 0 1 5.17-5.17 5.17 5.17 0 0 1 5.17 5.17v2.037a5.17 5.17 0 0 1 -5.17 5.17z" fill="#0566b5" data-original="#ffd9b3" style="" class=""/><path d="m14.5 1.747h33.758v124.5h-33.758z" fill="#ffffff" data-original="#80a3ff" style="" class=""/><path d="m36.258 110.247h-9.758a4 4 0 0 0 -4 4 4 4 0 0 0 4 4h9.758a4 4 0 0 0 4-4 4 4 0 0 0 -4-4z" fill="#ffffff" data-original="#f3f5f9" style="" class=""/><path d="m36.258 92.558h-9.758a4 4 0 0 0 -4 4 4 4 0 0 0 4 4h9.758a4 4 0 0 0 4-4 4 4 0 0 0 -4-4z" fill="#0566b5" data-original="#80ecc6" style="" class=""/><path d="m36.258 74.869h-9.758a4 4 0 0 0 -4 4 4 4 0 0 0 4 4h9.758a4 4 0 0 0 4-4 4 4 0 0 0 -4-4z" fill="#0566b5" data-original="#ffd830" style="" class=""/><g fill="#80a3ff"><path d="m105.5 61h-49.242a1.75 1.75 0 0 1 0-3.5h49.242a1.75 1.75 0 0 1 0 3.5z" fill="#ffffff" data-original="#80a3ff" style="" class=""/><path d="m105.5 70.25h-49.242a1.75 1.75 0 0 1 0-3.5h49.242a1.75 1.75 0 0 1 0 3.5z" fill="#ffffff" data-original="#80a3ff" style="" class=""/><path d="m105.5 79.5h-49.242a1.75 1.75 0 0 1 0-3.5h49.242a1.75 1.75 0 0 1 0 3.5z" fill="#ffffff" data-original="#80a3ff" style="" class=""/><path d="m105.5 110.873h-35.063a1.75 1.75 0 0 1 0-3.5h35.063a1.75 1.75 0 0 1 0 3.5z" fill="#ffffff" data-original="#80a3ff" style="" class=""/><path d="m105.5 120h-28.406a1.75 1.75 0 0 1 0-3.5h28.406a1.75 1.75 0 0 1 0 3.5z" fill="#ffffff" data-original="#80a3ff" style="" class=""/><path d="m92.937 88.75h-24.117a1.75 1.75 0 0 1 0-3.5h24.117a1.75 1.75 0 1 1 0 3.5z" fill="#ffffff" data-original="#80a3ff" style="" class=""/></g><path d="m40.258 11.5h-17.758a1.75 1.75 0 0 1 0-3.5h17.758a1.75 1.75 0 0 1 0 3.5z" fill="#0566b5" data-original="#4d5680" style="" class=""/><path d="m40.258 19.938h-17.758a1.75 1.75 0 0 1 0-3.5h17.758a1.75 1.75 0 0 1 0 3.5z" fill="#0566b5" data-original="#4d5680" style="" class=""/><path d="m40.258 28.378h-17.758a1.75 1.75 0 0 1 0-3.5h17.758a1.75 1.75 0 0 1 0 3.5z" fill="#0566b5" data-original="#4d5680" style="" class=""/><path d="m40.258 36.818h-17.758a1.75 1.75 0 0 1 0-3.5h17.758a1.75 1.75 0 0 1 0 3.5z" fill="#0566b5" data-original="#4d5680" style="" class=""/></g></g></svg>
